<?xml version="1.0" standalone="no"?><!DOCTYPE svg PUBLIC "-//W3C//DTD SVG 1.1//EN" "http://www.w3.org/Graphics/SVG/1.1/DTD/svg11.dtd"><svg t="1480898545712" class="icon" style="" viewBox="0 0 1024 1024" version="1.1" xmlns="http://www.w3.org/2000/svg" p-id="1057" xmlns:xlink="http://www.w3.org/1999/xlink" width="200" height="200"><defs><style type="text/css"></style></defs><path d="M503.606 16.787C225.472 16.787 0 240.887 0 517.329c0 276.439 225.472 500.539 503.606 500.539 278.132 0 503.601-224.099 503.601-500.539C1007.207 240.887 781.738 16.787 503.606 16.787L503.606 16.787 503.606 16.787zM825.278 837.368c-41.965 41.625-90.815 74.3-145.19 97.12-56.26 23.6-116.03 35.57-177.657 35.57-61.632 0-121.405-11.97-177.657-35.57-54.377-22.82-103.227-55.49-145.192-97.12-41.992-41.66-74.957-90.16-97.985-144.17-23.845-55.93-35.937-115.355-35.937-176.64 0-61.282 12.09-120.712 35.937-176.635 23.027-54.01 55.995-102.515 97.985-144.17 41.965-41.63 90.815-74.305 145.192-97.122 56.252-23.602 116.025-35.57 177.657-35.57 61.627 0 121.402 11.97 177.657 35.57 54.375 22.818 103.23 55.492 145.19 97.122 41.99 41.655 74.96 90.16 97.99 144.17 23.84 55.922 35.93 115.352 35.93 176.635 0 61.285-12.09 120.71-35.93 176.64C900.238 747.208 867.268 795.708 825.278 837.368L825.278 837.368 825.278 837.368zM686.758 561.683c-30.46-20.465-63.61-35.39-98.215-44.56 57.665-32.118 96.66-92.98 96.66-162.63 0-103.007-85.285-186.81-190.117-186.81-104.832 0-190.12 83.802-190.12 186.81 0 72.422 42.16 135.352 103.627 166.334-50.57 15.47-96.247 42.82-133.667 80.31-44.817 44.9-74.775 101.1-86.722 162.605-0.38 1.405-0.602 2.875-0.602 4.395 0 9.44 7.785 17.09 17.39 17.09 8.372 0 19.975-10.39 21.63-18.13 21.535-113.93 142.69-205.415 225.167-213.299 26.637-2.52 93.785 0 93.785 0s70.89 8.13 117.505 39.45c63.26 42.51 103.25 99.88 117.51 173.85 1.89 8.02 15.51 17.085 23.765 17.085 9.605 0 17.385-7.65 17.385-17.085 0-0.835-0.08-1.65-0.2-2.45C805.258 680.863 757.498 609.218 686.758 561.683zM348.159 354.249c0-79.63 65.93-144.412 146.97-144.412s146.97 64.782 146.97 144.412c0 74.767-58.13 136.44-132.307 143.695-7.605-0.118-15.235 0.042-22.877 0.485-77.232-4.2-138.755-67.26-138.755-144.182l0 0L348.16 354.249z" p-id="1058" fill="#fff"></path></svg>